SplineFontDB: 3.2
FontName: Ladora
FullName: Ladora
FamilyName: Ladora
Weight: Regular
Copyright: Copyright (c) 2024, Sleanux
UComments: "2024-5-22: Created with FontForge (http://fontforge.org)"
Version: 001.000
ItalicAngle: 0
UnderlinePosition: -100
UnderlineWidth: 50
Ascent: 800
Descent: 200
InvalidEm: 0
LayerCount: 2
Layer: 0 0 "Arri+AOgA-re" 1
Layer: 1 0 "Avant" 0
XUID: [1021 596 1339142916 2547]
OS2Version: 0
OS2_WeightWidthSlopeOnly: 0
OS2_UseTypoMetrics: 1
CreationTime: 1716398246
ModificationTime: 1716399155
OS2TypoAscent: 0
OS2TypoAOffset: 1
OS2TypoDescent: 0
OS2TypoDOffset: 1
OS2TypoLinegap: 0
OS2WinAscent: 0
OS2WinAOffset: 1
OS2WinDescent: 0
OS2WinDOffset: 1
HheadAscent: 0
HheadAOffset: 1
HheadDescent: 0
HheadDOffset: 1
OS2Vendor: 'PfEd'
MarkAttachClasses: 1
DEI: 91125
Encoding: ISO8859-1
UnicodeInterp: none
NameList: AGL For New Fonts
DisplaySize: -48
AntiAlias: 1
FitToEm: 0
WinInfo: 60 20 4
BeginPrivate: 0
EndPrivate
BeginChars: 256 26

StartChar: A
Encoding: 65 65 0
Width: 712
Flags: W
HStem: 0 41<0 57.8211 154.138 234 390 451.628 600.625 667> 228 42<211 403> 623 20G<312.818 361.916>
LayerCount: 2
Fore
SplineSet
321 643 m 1
 354 643 l 1
 580 72 l 1
 607 57 636 45 667 41 c 1
 667 0 l 1
 390 0 l 1
 390 41 l 1
 422 47 450 60 478 74 c 1
 419 228 l 1
 195 228 l 1
 135 73 l 1
 166 49 199 46 234 41 c 1
 234 0 l 1
 0 0 l 1
 0 41 l 1
 31 50 61 61 88 75 c 1
 151 228 l 1
 168 269 l 1
 321 643 l 1
307 521 m 1
 211 270 l 1
 403 270 l 1
 307 521 l 1
EndSplineSet
EndChar

StartChar: B
Encoding: 66 66 1
Width: 556
Flags: W
HStem: 0 41<0 74.2644 189 339.866> 313 41<189 316.703> 602 41<0 56.6889 189 335.851>
VStem: 86 103<55.1181 313 354 576.97> 378 113<413.747 555.265> 414 117<104.644 238.942>
LayerCount: 2
Fore
SplineSet
0 643 m 1xf4
 86 643 l 1
 334 643 l 2
 416 643 491 572 491 481 c 0xf8
 491 432 462 372 364 345 c 1
 474 318 531 240 531 166 c 0
 531 76 460 0 334 0 c 2
 189 0 l 1
 86 0 l 1
 0 0 l 1
 0 41 l 1
 38 47 67 48 86 73 c 1
 86 313 l 1
 86 354 l 1
 86 556 l 1
 67 580 38 596 0 602 c 1
 0 643 l 1xf4
189 602 m 1
 189 354 l 1
 278 354 l 1
 341 372 378 435 378 479 c 0
 378 517 358 575 310 602 c 1
 189 602 l 1
189 313 m 1
 189 41 l 1
 304 41 l 1
 359 63 414 107 414 163 c 0xf4
 414 225 373 290 296 313 c 1
 189 313 l 1
EndSplineSet
EndChar

StartChar: C
Encoding: 67 67 2
Width: 596
Flags: W
HStem: 0 58<236.142 410.969> 594 49<236.645 408.573>
VStem: 0 122<194.984 443.928> 490 50<407 509.438 613.6 643>
LayerCount: 2
Fore
SplineSet
307 643 m 0
 412 643 480 601 480 601 c 1
 490 643 l 1
 540 643 l 1
 540 407 l 1
 490 407 l 1
 490 514 442 594 307 594 c 0
 214 594 122 488 122 311 c 0
 122 99 263 58 307 58 c 0
 457 58 533 182 533 182 c 1
 570 168 l 1
 570 168 522 0 307 0 c 0
 117 0 0 151 0 311 c 0
 0 629 272 643 307 643 c 0
EndSplineSet
EndChar

StartChar: D
Encoding: 68 68 3
Width: 662
Flags: W
HStem: 0 42<0 96.6528 199 394.981> 596 47<0 98 199 383.65>
VStem: 98 101<48.1097 594.89> 512 120<219.242 430.234>
LayerCount: 2
Fore
SplineSet
0 643 m 1
 98 643 l 1
 199 643 l 1
 347 643 l 2
 432 643 632 549 632 321 c 0
 632 133 492 0 357 0 c 2
 199 0 l 1
 98 0 l 1
 0 0 l 1
 0 42 l 1
 45 42 98 42 98 69 c 2
 98 574 l 2
 98 601 45 601 0 601 c 1
 0 643 l 1
199 596 m 1
 199 42 l 1
 357 42 l 2
 419 42 512 219 512 321 c 0
 512 486 375 596 347 596 c 2
 199 596 l 1
EndSplineSet
EndChar

StartChar: E
Encoding: 69 69 4
Width: 559
Flags: W
HStem: 0 39<14 77.551 194.416 429.857> 312 40<187 318.769> 604 39<0 64.6022 187 394.333>
VStem: 85 102<52.0506 312 352 585.842> 348 40<211 276.569 387.431 453> 454 27<491 522.364> 504 27<153.982 185>
LayerCount: 2
Fore
SplineSet
0 643 m 1
 85 643 l 1
 187 643 l 1
 334 643 l 1
 481 643 l 1
 481 604 l 1
 481 491 l 1
 454 491 l 1
 454 512 412 566 378 604 c 1
 187 604 l 1
 187 352 l 1
 298 352 l 2
 314 352 348 418 348 453 c 1
 388 453 l 1
 388 211 l 1
 348 211 l 1
 348 246 314 312 298 312 c 2
 187 312 l 1
 187 62 l 1
 209 50 237 39 257 39 c 2
 404 39 l 2
 433 39 504 172 504 185 c 1
 531 185 l 1
 531 39 l 1
 531 0 l 1
 257 0 l 1
 85 0 l 1
 14 0 l 1
 14 40 l 1
 34 40 63 50 85 62 c 1
 85 556 l 2
 85 583 35 604 0 604 c 1
 0 643 l 1
EndSplineSet
EndChar

StartChar: F
Encoding: 70 70 5
Width: 522
Flags: W
HStem: 0 40<14 80.7969 191.192 257> 312 40<187 322.171> 604 39<0 64.6022 187 404.732>
VStem: 85 102<52.0506 312 352 585.842> 352 40<211 276.569 387.431 453> 465 27<481 515.097>
LayerCount: 2
Fore
SplineSet
0 643 m 1
 187 643 l 1
 334 643 l 1
 492 643 l 1
 492 604 l 1
 492 481 l 1
 465 481 l 1
 465 502 423 566 388 604 c 1
 187 604 l 1
 187 352 l 1
 302 352 l 2
 318 352 352 418 352 453 c 1
 392 453 l 1
 392 211 l 1
 352 211 l 1
 352 246 319 312 302 312 c 2
 187 312 l 1
 187 62 l 1
 209 50 237 40 257 40 c 1
 257 0 l 1
 187 0 l 1
 85 0 l 1
 14 0 l 1
 14 40 l 1
 34 40 63 50 85 62 c 1
 85 556 l 2
 85 583 35 604 0 604 c 1
 0 643 l 1
EndSplineSet
EndChar

StartChar: G
Encoding: 71 71 6
Width: 632
Flags: W
HStem: 0 58<236.142 414.128> 282 26<359 442.722 537.274 605> 594 49<236.645 408.573>
VStem: 0 122<194.984 443.928> 453 71<105 273.699> 490 50<407 509.438 613.6 643>
LayerCount: 2
Fore
SplineSet
307 643 m 1xf8
 412 643 480 601 480 601 c 1
 490 643 l 1
 540 643 l 1
 540 407 l 1
 490 407 l 1xf4
 490 514 442 594 307 594 c 0
 214 594 122 488 122 311 c 0
 122 99 263 58 307 58 c 0
 412 58 453 105 453 105 c 1
 453 248 l 2
 453 282 405 282 359 282 c 1
 359 308 l 1
 605 308 l 1
 605 282 l 1
 584 282 524 281 524 248 c 2
 524 83 l 1
 524 83 522 0 307 0 c 0
 117 0 0 151 0 311 c 0
 0 629 272 643 307 643 c 1xf8
EndSplineSet
EndChar

StartChar: H
Encoding: 72 72 7
Width: 698
Flags: W
HStem: 0 37<0 82.5433 193.504 281 386 469.983 581.503 667> 310 47<192 473> 606 37<0 82.5433 193.504 281 386 469.983 581.503 667>
VStem: 84 108<49.188 310 357 593.812> 473 107<49.6648 310 357 593.335>
LayerCount: 2
Fore
SplineSet
0 643 m 1
 281 643 l 1
 281 606 l 1
 261 606 224 597 192 588 c 1
 192 357 l 1
 473 357 l 1
 473 587 l 1
 441 597 403 606 386 606 c 1
 386 643 l 1
 667 643 l 1
 667 606 l 1
 648 606 612 598 580 588 c 1
 580 55 l 1
 612 45 648 37 667 37 c 1
 667 0 l 1
 386 0 l 1
 386 37 l 1
 403 37 441 46 473 56 c 1
 473 310 l 1
 192 310 l 1
 192 55 l 1
 224 46 261 37 281 37 c 1
 281 0 l 1
 0 0 l 1
 0 37 l 1
 17 37 53 46 84 55 c 1
 84 588 l 1
 53 597 17 606 0 606 c 1
 0 643 l 1
EndSplineSet
EndChar

StartChar: I
Encoding: 73 73 8
Width: 338
Flags: W
HStem: 0 21G<0 299> 623 20G<0 299>
VStem: 97 105<54.1527 588.847>
LayerCount: 2
Fore
SplineSet
0 643 m 1
 97 643 l 1
 202 643 l 1
 299 643 l 1
 299 606 l 1
 299 606 245 596 202 583 c 1
 202 60 l 1
 245 47 299 37 299 37 c 1
 299 0 l 1
 202 0 l 1
 97 0 l 1
 0 0 l 1
 0 37 l 1
 0 37 54 47 97 60 c 1
 97 583 l 1
 54 596 0 606 0 606 c 1
 0 643 l 1
EndSplineSet
EndChar

StartChar: J
Encoding: 74 74 9
Width: 432
Flags: W
HStem: 0 30<74.0375 157.896> 623 20G<104 399>
VStem: 1 49<47.6547 97> 200 103<68.801 599.844>
LayerCount: 2
Fore
SplineSet
104 643 m 1
 200 643 l 1
 303 643 l 1
 399 643 l 1
 399 615 l 1
 399 615 303 611 303 579 c 2
 303 149 l 2
 303 46 231 0 107 0 c 0
 46 0 1 10 1 97 c 1
 50 97 l 1
 50 86 64 30 107 30 c 0
 164 30 200 66 200 149 c 2
 200 579 l 2
 200 609 104 615 104 615 c 1
 104 643 l 1
EndSplineSet
EndChar

StartChar: K
Encoding: 75 75 10
Width: 658
Flags: W
HStem: 0 42<0 74.9763 203.15 278> 294 28<189 198> 601 42<0 74.9763 203.15 278 346 419.638 512.222 585>
VStem: 89 100<57.8673 294 322 585.133>
LayerCount: 2
Fore
SplineSet
0 643 m 1
 89 643 l 1
 189 643 l 1
 278 643 l 1
 278 601 l 1
 230 601 208 585 189 570 c 1
 189 322 l 1
 198 322 l 1
 198 322 336 476 409 550 c 0
 418 559 421 580 421 594 c 1
 392 600 359 607 346 607 c 1
 346 639 l 1
 585 639 l 1
 585 607 l 1
 568 607 537 600 511 594 c 1
 495 579 466 552 447 532 c 0
 390 474 284 352 284 352 c 1
 284 352 540 72 555 57 c 0
 572 39 624 39 624 39 c 1
 624 0 l 1
 441 0 l 1
 198 294 l 1
 189 294 l 1
 189 73 l 1
 208 58 230 42 278 42 c 1
 278 0 l 1
 0 0 l 1
 0 42 l 1
 49 42 70 58 89 73 c 1
 89 294 l 1
 89 322 l 1
 89 570 l 1
 70 585 49 601 0 601 c 1
 0 643 l 1
EndSplineSet
EndChar

StartChar: L
Encoding: 76 76 11
Width: 552
Flags: W
HStem: 0 47<193 433.075> 0 38<3 74.0498> 599 44<0 72.1069 206.054 281>
VStem: 87 106<50.2212 580.251> 481 35<115.193 183>
LayerCount: 2
Fore
SplineSet
0 643 m 1x78
 87 643 l 1
 193 643 l 1
 281 643 l 1
 281 599 l 1
 253 599 220 584 193 571 c 1
 193 47 l 1
 401 47 l 2xb8
 424 47 481 114 481 183 c 1
 516 183 l 1
 516 49 l 1
 516 0 l 1x78
 193 0 l 1xb8
 3 0 l 1
 3 38 l 1
 41 38 87 46 87 88 c 2
 87 570 l 1
 59 584 25 599 0 599 c 1
 0 643 l 1x78
EndSplineSet
EndChar

StartChar: M
Encoding: 77 77 12
Width: 824
Flags: W
HStem: 0 41<0 82.7747 149.274 237 502 598.4 711.362 791> 602 41<0 82.7747 236 237 711.133 791>
VStem: 84 64<51.5513 565> 600 110<50.1875 576>
LayerCount: 2
Fore
SplineSet
0 643 m 1
 84 643 l 1
 221 643 l 1
 237 643 l 1
 237 602 l 1
 237 602 237 602 236 602 c 1
 393 180 l 1
 582 602 l 1
 582 643 l 1
 791 643 l 1
 791 602 l 1
 769 602 734 596 710 584 c 1
 710 53 l 1
 739 45 772 41 791 41 c 1
 791 0 l 1
 502 0 l 1
 502 41 l 1
 523 41 566 46 600 55 c 1
 600 576 l 1
 369 15 l 1
 360 15 l 1
 148 565 l 1
 148 59 l 1
 175 47 214 41 237 41 c 1
 237 0 l 1
 0 0 l 1
 0 41 l 1
 23 41 58 47 84 57 c 1
 84 586 l 1
 58 596 23 602 0 602 c 1
 0 643 l 1
EndSplineSet
EndChar

StartChar: N
Encoding: 78 78 13
Width: 712
Flags: W
HStem: 0 35<0 89.5858 158.592 255> 608 35<0 72.2266 425 514.496 584.274 680>
VStem: 91 61<47.2732 515> 522 61<144 595.03>
LayerCount: 2
Fore
SplineSet
0 643 m 1
 152 643 l 1
 522 144 l 1
 522 588 l 1
 491 600 446 608 425 608 c 1
 425 643 l 1
 680 643 l 1
 680 608 l 1
 649 608 610 601 583 591 c 1
 583 0 l 1
 522 0 l 1
 152 515 l 1
 152 55 l 1
 179 43 221 35 255 35 c 1
 255 0 l 1
 152 0 l 1
 91 0 l 1
 0 0 l 1
 0 35 l 1
 20 35 61 42 91 52 c 1
 91 557 l 2
 91 601 38 604 0 604 c 1
 0 643 l 1
EndSplineSet
EndChar

StartChar: O
Encoding: 79 79 14
Width: 642
Flags: W
HStem: 0 34<251.119 372.632> 611 32<255.468 367.751>
VStem: 0 116<192.994 454.506> 509 116<183.723 454.506>
LayerCount: 2
Fore
SplineSet
313 643 m 0
 367 643 625 620 625 322 c 0
 625 1 348 0 313 0 c 0
 285 0 0 1 0 322 c 0
 0 620 250 643 313 643 c 0
313 611 m 0
 278 611 116 568 116 323 c 0
 116 65 283 34 313 34 c 0
 340 34 509 65 509 323 c 0
 509 568 344 611 313 611 c 0
EndSplineSet
EndChar

StartChar: P
Encoding: 80 80 15
Width: 532
Flags: W
HStem: 0 34<0 83.7315 187.364 274> 278 43<186 347.153> 599 44<186 328.027> 612 31<0 73.6664>
VStem: 85 101<42.7974 278 321 598.577> 391 116<373.913 530.248>
LayerCount: 2
Fore
SplineSet
0 643 m 1xdc
 186 643 l 1xec
 358 643 l 2
 404 643 507 577 507 462 c 0
 507 367 440 278 314 278 c 2
 186 278 l 1
 186 49 l 1
 215 39 250 34 274 34 c 1
 274 0 l 1
 186 0 l 1
 85 0 l 1
 0 0 l 1
 0 34 l 1
 27 34 58 38 85 47 c 1
 85 278 l 1
 85 321 l 1
 85 578 l 2
 85 605 36 612 0 612 c 1
 0 643 l 1xdc
186 599 m 1
 186 321 l 1
 294 321 l 2
 354 321 391 383 391 462 c 0
 391 525 323 599 283 599 c 2
 186 599 l 1
EndSplineSet
EndChar

StartChar: Q
Encoding: 81 81 16
Width: 631
Flags: W
HStem: -143 49.0002<430.552 565> 0 31<238.669 284> 603 33<225.003 359.772>
VStem: 0 110<175.041 450.706> 284 99<-51.9391 0> 470 110<189.979 451.307>
LayerCount: 2
Fore
SplineSet
290 636 m 1
 333 636 580 616 580 318 c 0
 580 142 477 53 383 18 c 1
 383 -75 437 -94 565 -94 c 1
 565 -143 l 1
 561.98630137 -143 559.002439482 -143.000187652 556.04816242 -143.000187652 c 0
 343.340213924 -143.000187652 284 -142.02739726 284 0 c 1
 204 0 0 22 0 318 c 0
 0 616 246 636 290 636 c 1
290 603 m 0
 235 603 110 568 110 318 c 0
 110 59 262 31 290 31 c 0
 321 31 470 68 470 318 c 0
 470 571 355 603 290 603 c 0
EndSplineSet
EndChar

StartChar: R
Encoding: 82 82 17
Width: 646
Flags: W
HStem: 0 31<8 82.7315 186.315 261 586.938 618> 290 41<185 245> 600 43<0 82.228 185 349.791>
VStem: 84 101<39.0156 290 331 596.746> 390 110<412.324 552.212>
LayerCount: 2
Fore
SplineSet
0 643 m 1
 185 643 l 1
 346 643 l 2
 427 643 500 554 500 473 c 0
 500 413 427 331 346 331 c 1
 547 47 l 1
 618 31 l 1
 618 0 l 1
 450 0 l 1
 245 290 l 1
 185 290 l 1
 185 45 l 1
 213 36 245 31 261 31 c 1
 261 0 l 1
 185 0 l 1
 84 0 l 1
 8 0 l 1
 8 31 l 1
 26 31 57 36 84 44 c 1
 84 570 l 2
 84 602 32 606 -0 606 c 1
 0 643 l 1
185 600 m 1
 185 331 l 1
 215 331 l 1
 280 331 l 2
 322 331 390 429 390 471 c 0
 390 558 346 600 299 600 c 2
 185 600 l 1
EndSplineSet
EndChar

StartChar: S
Encoding: 83 83 18
Width: 433
Flags: W
HStem: 0 51<153.249 269.7> 594 40<132.547 263.533>
VStem: 0 45<193 220> 14 81<433.965 552.677> 323.713 80.2871<108.476 220.789> 341 45<424 448.37>
LayerCount: 2
Fore
SplineSet
204 634 m 0xd8
 207 634 210 634 213 634 c 0
 251 634 295 613 321 600 c 1
 341 626 l 1
 386 626 l 1
 386 424 l 1
 341 424 l 1
 314 518 l 1
 290 554 254 594 214 594 c 0
 129 594 95 561 95 489 c 0xd4
 95 412 180 389 260 361 c 0
 375 320 404 262 404 174 c 0
 404 102 325 0 230 0 c 0
 164 0 94 39 64 56 c 1
 45 18 l 1
 0 18 l 1
 0 220 l 1
 45 220 l 1xe8
 66 139 l 1
 102 105 167 51 224 51 c 0
 267.231944039 51 323.712949884 120.778392177 323.712949884 168.19187285 c 0
 323.712949884 171.22766434 323.481401037 174.17176891 323 177 c 0
 315 227 265 261 198 282 c 0
 76 322 14 358 14 490 c 0
 14 565 105 634 204 634 c 0xd8
EndSplineSet
EndChar

StartChar: T
Encoding: 84 84 19
Width: 587
Flags: W
HStem: 0 45<124 220.353 327.599 424> 598 45<117 222 326 431>
VStem: 222 104<55.645 598>
LayerCount: 2
Fore
SplineSet
0 643 m 1
 222 643 l 1
 274 643 l 1
 326 643 l 1
 548 643 l 1
 548 476 l 1
 511 476 l 1
 431 598 l 1
 326 598 l 1
 326 59 l 1
 360 51 401 45 424 45 c 1
 424 0 l 1
 326 0 l 1
 222 0 l 1
 124 0 l 1
 124 45 l 1
 143 45 187 52 222 60 c 1
 222 598 l 1
 117 598 l 1
 37 477 l 1
 0 477 l 1
 0 643 l 1
EndSplineSet
EndChar

StartChar: U
Encoding: 85 85 20
Width: 708
Flags: W
HStem: 3 50<250.648 410.482> 587 59<0 80.4027 185.458 270> 597 49<390 477.394 570.75 660>
VStem: 82 102<110.825 573.382> 490 68<117.818 577.637>
LayerCount: 2
Fore
SplineSet
0 646 m 1xd8
 270 646 l 1
 270 587 l 1xd8
 253 587 215 578 184 566 c 1
 184 147 l 2
 184 121 249 53 325 53 c 0
 404 53 490 96 490 141 c 2
 490 571 l 1
 453 584 401 597 390 597 c 1
 390 646 l 1
 660 646 l 1
 660 597 l 1xb8
 640 597 590 584 558 570 c 1
 558 167 l 2
 558 103 419 3 320 3 c 0
 179 3 82 70 82 140 c 2
 82 567 l 1
 48 578 9 587 0 587 c 1
 0 646 l 1xd8
EndSplineSet
EndChar

StartChar: W
Encoding: 87 87 21
Width: 950
Flags: W
HStem: 0 21G<231.37 281.034 606.627 643.11> 613 30<0 35.5845 217.125 258 665 707.923 868.849 924>
LayerCount: 2
Fore
SplineSet
0 643 m 1
 258 643 l 1
 258 607 l 1
 232 607 202 593 177 578 c 1
 293 174 l 1
 448 629 l 1
 496 629 l 1
 657 163 l 1
 761 557 l 1
 737 582 693 613 665 613 c 1
 665 643 l 1
 924 643 l 1
 924 613 l 1
 889 613 840 587 809 563 c 1
 637 0 l 1
 614 0 l 1
 440 472 l 1
 274 0 l 1
 237 0 l 1
 74 579 l 1
 48 594 19 607 0 607 c 1
 0 643 l 1
EndSplineSet
EndChar

StartChar: V
Encoding: 86 86 22
Width: 700
Flags: W
HStem: 0 21G<278.218 350.717> 617 26<0 28.0092 207.004 251 418 447.449 621.46 668>
LayerCount: 2
Fore
SplineSet
418 643 m 1
 668 643 l 1
 668 617 l 1
 636 617 582 588 556 552 c 1
 343 0 l 1
 286 0 l 1
 58 586 l 1
 31 604 5 617 0 617 c 1
 0 643 l 1
 251 643 l 1
 251 617 l 1
 232 617 207 606 184 591 c 1
 347 160 l 1
 504 567 l 1
 470 595 424 617 418 617 c 1
 418 643 l 1
EndSplineSet
EndChar

StartChar: X
Encoding: 88 88 23
Width: 700
Flags: W
HStem: 1 42<0 80.3647 179.821 280 363 439.359 578.598 662> 601 42<5 96.1222 234.452 304 382 461.882 564.775 662>
LayerCount: 2
Fore
SplineSet
5 643 m 1
 304 643 l 1
 304 601 l 1
 294 601 264 594 233 586 c 1
 347 412 l 1
 468 578 l 1
 436 589 393 601 382 601 c 1
 382 643 l 1
 662 643 l 1
 662 601 l 1
 650 601 601 591 561 579 c 1
 385 355 l 1
 577 63 l 1
 611 52 651 43 662 43 c 1
 662 1 l 1
 363 1 l 1
 363 43 l 1
 371 43 406 50 441 59 c 1
 310 259 l 1
 161 69 l 1
 203 57 267 42 280 42 c 1
 280 1 l 1
 0 1 l 1
 0 42 l 1
 12 42 64 57 97 70 c 1
 274 312 l 1
 98 582 l 1
 58 592 14 601 5 601 c 1
 5 643 l 1
EndSplineSet
EndChar

StartChar: Y
Encoding: 89 89 24
Width: 654
Flags: W
HStem: 0 35<180 236.56 421.346 477> 608 35<0 54.1133 242.704 297 430 478.906 584.237 633>
VStem: 271 108<59.8145 263>
LayerCount: 2
Fore
SplineSet
0 643 m 1
 297 643 l 1
 297 608 l 1
 284 604 252 595 221 583 c 1
 353 306 l 1
 509 568 l 1
 486 589 449 612 430 612 c 1
 430 643 l 1
 633 643 l 1
 633 612 l 1
 616 612 575 588 550 566 c 1
 379 270 l 1
 379 68 l 1
 415 53 460 39 477 35 c 1
 477 0 l 1
 180 0 l 1
 180 35 l 1
 193 38 235 51 271 65 c 1
 271 263 l 1
 90 578 l 1
 54 592 13 604 0 608 c 1
 0 643 l 1
EndSplineSet
EndChar

StartChar: Z
Encoding: 90 90 25
Width: 572
Flags: W
HStem: 0 40<136 430.207> 610 33<162.422 412>
VStem: 60 48<486 553.208> 483 47<97.3156 165>
LayerCount: 2
Fore
SplineSet
60 643 m 1
 536 643 l 1
 136 40 l 1
 379 40 l 2
 456 40 483 144 483 165 c 1
 530 165 l 1
 530 40 l 1
 530 0 l 1
 0 0 l 1
 412 610 l 1
 211 610 l 2
 134 610 108 507 108 486 c 1
 60 486 l 1
 60 610 l 1
 60 643 l 1
EndSplineSet
EndChar
